<svg width="46" height="46" viewBox="0 0 46 46" fill="none" xmlns="http://www.w3.org/2000/svg">
<path fill-rule="evenodd" clip-rule="evenodd" d="M14.0036 14.8699L14.6611 20.7877L13.3305 20.8939C11.475 21.0421 9.95988 22.4369 9.65909 24.2738C8.96585 28.5075 8.96585 32.8258 9.65909 37.0596C9.95988 38.8965 11.475 40.2913 13.3305 40.4395L16.1981 40.6684C20.7255 41.0298 25.2746 41.0298 29.802 40.6684L32.6696 40.4395C34.5251 40.2913 36.0403 38.8965 36.341 37.0596C37.0343 32.8258 37.0343 28.5075 36.341 24.2738C36.0403 22.4369 34.5251 21.0421 32.6696 20.8939L31.3388 20.7877L31.9964 14.8699C32.0739 14.1722 32.0739 13.4682 31.9964 12.7706L31.9527 12.3778C31.4899 8.21217 28.215 4.91616 24.0525 4.42644C23.3532 4.34418 22.6467 4.34418 21.9475 4.42644C17.7849 4.91616 14.5101 8.21217 14.0472 12.3778L14.0036 12.7706C13.9261 13.4682 13.9261 14.1722 14.0036 14.8699ZM23.7165 7.28175C23.2405 7.22574 22.7595 7.22574 22.2834 7.28175C19.4494 7.61517 17.2198 9.8592 16.9046 12.6953L16.861 13.088C16.8069 13.5747 16.8069 14.0658 16.861 14.5524L17.5295 20.5692C21.1727 20.3355 24.8272 20.3355 28.4704 20.5692L29.1389 14.5524C29.193 14.0658 29.193 13.5747 29.1389 13.088L29.0953 12.6953C28.7802 9.8592 26.5506 7.61517 23.7165 7.28175ZM23 27.7917C21.4122 27.7917 20.125 29.0789 20.125 30.6667C20.125 32.2545 21.4122 33.5417 23 33.5417C24.5878 33.5417 25.875 32.2545 25.875 30.6667C25.875 29.0789 24.5878 27.7917 23 27.7917Z" fill="#021526"/>
</svg>
