<svg width="88" height="94" viewBox="0 0 88 94" fill="none" xmlns="http://www.w3.org/2000/svg">
<path d="M29.5781 0H4.80225L9.34971 9.72216V84.2065L4.80225 93.9286H62.0376L67.3691 75.4252H29.5781V0Z" fill="#D89E30"/>
<path d="M5.11551 69.7797V29.0094C3.12927 33.191 -0.65506 43.5299 0.0976238 51.4331C0.850307 59.3362 3.7565 66.9572 5.11551 69.7797Z" fill="#D89E30"/>
<path d="M33.6548 71.3478V18.3464C43.2202 13.4853 69.0937 16.3078 75.5229 38.1043C80.6662 55.5415 72.7526 67.5321 68.1528 71.3478H33.6548Z" fill="#D89E30"/>
<path d="M72.0731 24.7756C58.5248 10.0983 40.8158 11.2377 33.6548 13.6422V7.8403C34.5434 6.79491 49.5517 5.01773 56.549 7.84023C72.0105 14.0769 81.0703 23.9916 85.8723 35.4386C93.5245 60.9044 77.875 78.8747 69.0937 84.6767L72.5435 72.7592C78.659 68.2117 89.0084 43.1223 72.0731 24.7756Z" fill="#D89E30"/>
</svg>
