<svg width="38" height="37" viewBox="0 0 38 37" fill="none" xmlns="http://www.w3.org/2000/svg">
<path fill-rule="evenodd" clip-rule="evenodd" d="M22.7764 23.8122C18.5801 27.0846 12.4377 26.827 8.54778 23.0395C4.37405 18.9756 4.37405 12.3867 8.54778 8.32282C12.7215 4.25893 19.4885 4.25893 23.6622 8.32282C27.5521 12.1104 27.8166 18.0911 24.4558 22.177L32.6188 30.1252C33.0826 30.5768 33.0826 31.3089 32.6188 31.7604C32.1551 32.212 31.4032 32.212 30.9395 31.7604L22.7764 23.8122ZM10.2272 21.4043C6.98092 18.2435 6.98092 13.1188 10.2272 9.95801C13.4734 6.7972 18.7366 6.7972 21.9828 9.95801C25.2267 13.1165 25.229 18.236 21.99 21.3973C21.9876 21.3996 21.9852 21.4019 21.9828 21.4043C21.9804 21.4066 21.978 21.4089 21.9757 21.4112C18.7289 24.5651 13.471 24.5628 10.2272 21.4043Z" fill="#606060"/>
</svg>
