<svg width="38" height="38" viewBox="0 0 38 38" fill="none" xmlns="http://www.w3.org/2000/svg">
<path d="M20.3694 4.744C19.7592 3.69243 18.2406 3.69243 17.6304 4.744L13.3332 12.1497C13.0318 12.6692 12.5108 13.0237 11.9169 13.1134L3.86358 14.3298C2.51097 14.534 2.03651 16.2418 3.08991 17.1146L9.0893 22.085C9.64464 22.5451 9.90577 23.2709 9.77086 23.9793L8.20152 32.2208C7.95343 33.5236 9.3211 34.5358 10.4946 33.9179L18.0778 29.9251C18.655 29.6211 19.3448 29.6211 19.922 29.9251L27.5052 33.9179C28.6787 34.5358 30.0464 33.5236 29.7983 32.2208L28.229 23.9793C28.0941 23.2709 28.3552 22.5451 28.9105 22.085L34.9099 17.1146C35.9633 16.2419 35.4889 14.534 34.1362 14.3298L26.0829 13.1134C25.4891 13.0237 24.9681 12.6692 24.6666 12.1497L20.3694 4.744Z" fill="white"/>
</svg>
