<svg width="50" height="50" viewBox="0 0 50 50" fill="none" xmlns="http://www.w3.org/2000/svg">
<path d="M24.9998 7.8125C20.6851 7.8125 17.1873 11.3103 17.1873 15.625C17.1873 19.9397 20.6851 23.4375 24.9998 23.4375C29.3146 23.4375 32.8123 19.9397 32.8123 15.625C32.8123 11.3103 29.3146 7.8125 24.9998 7.8125Z" fill="#021526"/>
<path d="M16.6665 27.6042C12.3518 27.6042 8.854 31.1019 8.854 35.4167V37.8923C8.854 39.4615 9.99126 40.7995 11.54 41.0523C20.4542 42.5077 29.5455 42.5077 38.4597 41.0523C40.0084 40.7995 41.1457 39.4615 41.1457 37.8923V35.4167C41.1457 31.1019 37.6479 27.6042 33.3332 27.6042H32.623C32.2387 27.6042 31.8567 27.6649 31.4914 27.7842L29.6882 28.373C26.6418 29.3678 23.3579 29.3678 20.3115 28.373L18.5083 27.7842C18.1429 27.6649 17.761 27.6042 17.3766 27.6042H16.6665Z" fill="#021526"/>
</svg>
