<svg width="16" height="29" viewBox="0 0 16 29" fill="none" xmlns="http://www.w3.org/2000/svg">
<g clip-path="url(#clip0_494_110)">
<path d="M12.0022 0C12.8191 0 13.6361 0.0414167 14.4443 0.0745501C14.9745 0.0911168 15.5046 0.165667 16 0.215367L15.9652 4.88718C15.8175 4.88718 15.6958 4.88718 15.5741 4.88718C15.0353 4.88718 14.4965 4.87889 13.9576 4.87889C13.5578 4.87889 13.1494 4.87889 12.7496 4.89546C11.4546 4.94516 10.4986 5.40903 10.4291 6.94973C10.3857 8.0597 10.3596 10.5199 10.3596 10.6524C10.4291 10.6524 11.7067 10.6607 13.0016 10.6607C13.6448 10.6607 14.2792 10.6607 14.7137 10.6524C15.0527 10.6524 15.3829 10.6524 15.7653 10.6524C15.5046 12.4416 15.2613 14.1645 15.0005 15.8957H10.3596L10.2553 29H4.55405L4.65834 15.8792H0L0.0434546 10.6607H4.72787V10.2714C4.73656 9.21937 4.71917 8.16738 4.76263 7.1154C4.78001 6.45273 4.81477 5.77349 4.93645 5.11911C5.24932 3.52042 6.0315 2.17852 7.43074 1.22594C8.65617 0.389317 10.0554 0.0414167 11.5416 0.00828335C11.698 0 11.8457 0 12.0022 0Z" fill="white"/>
</g>
<defs>
<clipPath id="clip0_494_110">
<rect width="16" height="29" fill="white"/>
</clipPath>
</defs>
</svg>
