<svg width="28" height="22" viewBox="0 0 28 22" fill="none" xmlns="http://www.w3.org/2000/svg">
<g clip-path="url(#clip0_494_113)">
<path d="M28 2.63098C27.7932 2.93166 27.5865 3.21564 27.3538 3.48292C26.7508 4.20957 26.0443 4.8527 25.2603 5.40395L25.1569 5.57935C25.1828 6.39787 25.1397 7.22475 25.0277 8.04328C24.8037 9.77221 24.2868 11.4176 23.52 12.9879C22.7102 14.6082 21.6849 16.0782 20.384 17.3645C18.1785 19.5611 15.5422 20.9727 12.4751 21.6241C11.424 21.8413 10.3643 21.9582 9.27877 21.9916C9.10646 22 8.93415 22 8.76185 22C5.66031 22 2.78277 21.1982 0.129231 19.6029L0 19.5194C0.456615 19.5695 0.904615 19.5862 1.344 19.5862C2.86031 19.5862 4.31631 19.3106 5.73785 18.7593C6.72 18.3667 7.62462 17.8656 8.46892 17.2141C5.49662 17.1222 3.65292 15.0425 3.17046 13.3554C3.52369 13.4222 3.88554 13.4556 4.23877 13.4556C4.704 13.4556 5.16923 13.3971 5.62585 13.2969L5.712 13.2551C4.09231 12.8876 2.86031 12.0607 2.016 10.7077C1.44738 9.81397 1.18031 8.8284 1.18892 7.7593C1.99877 8.17692 2.83446 8.40243 3.73908 8.42749C2.53292 7.5839 1.73169 6.47304 1.40431 5.0615C1.08554 3.64161 1.31815 2.29689 2.06769 1.03569C5.13477 4.57707 9.04615 6.52316 13.8363 6.8489C13.8018 6.62339 13.776 6.43128 13.7415 6.23918C13.5951 4.92787 13.8794 3.71678 14.6203 2.61428C15.5422 1.21944 16.8431 0.35915 18.5231 0.100228C18.8677 0.0250569 19.2209 0 19.5569 0C21.056 0 22.3828 0.559605 23.52 1.63705C23.5889 1.69552 23.6492 1.72893 23.7268 1.72893C23.7526 1.72893 23.7871 1.72893 23.8129 1.72058C24.9932 1.47836 26.1132 1.0691 27.1557 0.484434L27.2332 0.442673C26.8197 1.72893 25.984 2.73121 24.7951 3.46621C25.9151 3.34928 26.9748 3.05695 28 2.63098Z" fill="white"/>
</g>
<defs>
<clipPath id="clip0_494_113">
<rect width="28" height="22" fill="white"/>
</clipPath>
</defs>
</svg>
