<svg width="26" height="26" viewBox="0 0 26 26" fill="none" xmlns="http://www.w3.org/2000/svg">
<g clip-path="url(#clip0_494_116)">
<path d="M19.9844 4.52356C19.9928 4.52356 20.0012 4.52356 20.0012 4.52356C20.8569 4.52356 21.5533 5.22014 21.5449 6.09296C21.5365 6.949 20.8318 7.64557 19.9676 7.64557C19.1035 7.63718 18.4155 6.93221 18.4239 6.07617C18.4323 5.22014 19.1286 4.52356 19.9844 4.52356Z" fill="white"/>
<path d="M25.8406 6.52937C26.0335 8.57715 26.1594 18.2453 25.5553 20.5113C24.7499 23.4739 22.8118 25.2279 19.8167 25.7147C18.6924 25.8993 15.6721 26.0084 12.6434 26.0084C9.54756 26.0084 6.46011 25.8909 5.41978 25.6223C2.47496 24.8586 0.713098 22.9367 0.243269 19.949C-0.100713 17.7502 -0.134272 7.56165 0.494963 5.34603C1.31716 2.4674 3.24682 0.772111 6.15808 0.293738C7.48367 0.0755326 10.0677 0 12.677 0C15.1016 0 17.5514 0.0671401 19.028 0.142673C20.8151 0.23499 22.4427 0.814074 23.7767 2.08134C25.0351 3.29826 25.6812 4.8173 25.8406 6.52937ZM23.3404 19.5126C23.7095 17.2298 23.7095 8.87928 23.4998 6.73919C23.2649 4.45642 21.8722 2.94577 19.6069 2.59329C18.4911 2.42544 15.7896 2.3499 13.1048 2.3499C10.5124 2.3499 7.93672 2.41704 6.80409 2.54293C4.54724 2.81149 3.02029 4.20465 2.65953 6.46223C2.29038 8.8541 2.29038 17.7921 2.56724 19.5881C2.8525 21.4597 3.90961 22.7437 5.77215 23.264C6.77893 23.5494 9.79925 23.6501 12.7609 23.6501C15.4875 23.6501 18.1639 23.5662 19.1707 23.4571C21.4695 23.2053 22.9796 21.7954 23.3404 19.5126Z" fill="white"/>
<path d="M13.0544 6.33632C16.7291 6.33632 19.6907 9.32406 19.6655 13.0084C19.6404 16.6843 16.6284 19.672 12.9453 19.672C9.26219 19.672 6.30897 16.6843 6.33414 13C6.35931 9.31566 9.37125 6.32793 13.0544 6.33632ZM12.9621 17.3137C15.328 17.3137 17.2661 15.4086 17.308 13.0419C17.35 10.6501 15.4539 8.7114 13.0712 8.68622C13.0544 8.68622 13.046 8.68622 13.0292 8.68622C10.6633 8.68622 8.72524 10.5913 8.68329 12.958C8.64134 15.3415 10.5374 17.2885 12.9201 17.3137C12.9369 17.3137 12.9453 17.3137 12.9621 17.3137Z" fill="white"/>
</g>
<defs>
<clipPath id="clip0_494_116">
<rect width="26" height="26" fill="white"/>
</clipPath>
</defs>
</svg>
