<svg width="20" height="36" viewBox="0 0 20 36" fill="none" xmlns="http://www.w3.org/2000/svg">
<g clip-path="url(#clip0_513_152)">
<path d="M14.5289 0C15.5179 0 16.5068 0.0501361 17.4852 0.0902449C18.127 0.110299 18.7687 0.200544 19.3684 0.260707L19.3263 5.91605C19.1475 5.91605 19.0002 5.91605 18.8529 5.91605C18.2006 5.91605 17.5484 5.90603 16.8961 5.90603C16.4121 5.90603 15.9177 5.90603 15.4337 5.92608C13.8661 5.98624 12.7089 6.54777 12.6247 8.41283C12.5721 9.75648 12.5406 12.7346 12.5406 12.895C12.6247 12.895 14.1712 12.905 15.7388 12.905C16.5173 12.905 17.2853 12.905 17.8114 12.895C18.2217 12.895 18.6215 12.895 19.0844 12.895C18.7687 15.0609 18.4742 17.1465 18.1586 19.2422H12.5406L12.4143 35.1053H5.51279L5.63904 19.2222H0L0.052603 12.905H5.72321V12.4337C5.73373 11.1603 5.71269 9.88683 5.76529 8.61337C5.78633 7.8112 5.82841 6.98897 5.9757 6.19682C6.35444 4.26156 7.3013 2.63716 8.99511 1.48403C10.4785 0.471279 12.1723 0.0501361 13.9714 0.0100272C14.1607 0 14.3396 0 14.5289 0Z" fill="white"/>
</g>
<defs>
<clipPath id="clip0_513_152">
<rect width="19.3684" height="35.1053" fill="white"/>
</clipPath>
</defs>
</svg>
