<svg width="35" height="28" viewBox="0 0 35 28" fill="none" xmlns="http://www.w3.org/2000/svg">
<g clip-path="url(#clip0_513_149)">
<path d="M34.3156 4.02691C34.0653 4.3909 33.815 4.73466 33.5334 5.0582C32.8034 5.93783 31.9482 6.71636 30.9992 7.38366L30.874 7.59599C30.9053 8.58684 30.8532 9.5878 30.7176 10.5786C30.4464 12.6716 29.8207 14.6634 28.8925 16.5642C27.9121 18.5257 26.6711 20.3051 25.0963 21.8622C22.4264 24.5213 19.2351 26.23 15.5223 27.0186C14.25 27.2815 12.9672 27.4231 11.6531 27.4635C11.4445 27.4736 11.2359 27.4736 11.0273 27.4736C7.27285 27.4736 3.78951 26.503 0.577336 24.5719L0.420898 24.4707C0.973643 24.5314 1.51596 24.5516 2.04785 24.5516C3.88338 24.5516 5.6459 24.218 7.36671 23.5507C8.55564 23.0755 9.6507 22.4688 10.6728 21.6802C7.0747 21.569 4.84286 19.0514 4.25883 17.009C4.68642 17.0899 5.12445 17.1304 5.55204 17.1304C6.11521 17.1304 6.67839 17.0596 7.23113 16.9383L7.33542 16.8877C5.37474 16.4428 3.88338 15.4419 2.86132 13.804C2.173 12.7221 1.84969 11.529 1.86012 10.2349C2.84046 10.7404 3.85209 11.0134 4.94715 11.0437C3.48707 10.0226 2.51716 8.67783 2.12085 6.96912C1.73497 5.25031 2.01656 3.62248 2.92389 2.09577C6.63667 6.3827 11.3715 8.7385 17.1701 9.13281C17.1284 8.85983 17.0971 8.62728 17.0554 8.39473C16.8781 6.80735 17.2223 5.3413 18.1192 4.00669C19.2351 2.3182 20.8099 1.2768 22.8436 0.963369C23.2607 0.872373 23.6883 0.842041 24.0951 0.842041C25.9097 0.842041 27.5158 1.51946 28.8925 2.82374C28.9759 2.89451 29.0489 2.93496 29.1428 2.93496C29.1741 2.93496 29.2158 2.93496 29.2471 2.92484C30.6759 2.63163 32.0317 2.13621 33.2936 1.42846L33.3874 1.37791C32.8868 2.93496 31.8752 4.14824 30.436 5.03798C31.7918 4.89643 33.0746 4.54256 34.3156 4.02691Z" fill="white"/>
</g>
<defs>
<clipPath id="clip0_513_149">
<rect width="33.8947" height="26.6316" fill="white" transform="translate(0.420898 0.842041)"/>
</clipPath>
</defs>
</svg>
