<svg width="27" height="19" viewBox="0 0 27 19" fill="none" xmlns="http://www.w3.org/2000/svg">
<g clip-path="url(#clip0_494_123)">
<path d="M26.3166 2.465C27.2863 5.02318 27.2442 14.3495 26.0805 16.823C25.7601 17.5007 25.2542 17.9581 24.6133 18.3054C23.7026 18.7798 18.4241 19 13.2467 19C8.48246 19 3.811 18.8136 2.71481 18.4494C1.70295 18.1106 1.0115 17.4414 0.648919 16.4249C-0.219601 13.9514 -0.413542 3.58315 1.33193 1.53321C1.92219 0.838609 2.69795 0.42354 3.6002 0.330361C5.67453 0.11012 9.67984 0 13.6261 0C18.5421 0 23.3738 0.169416 24.2929 0.508248C25.2626 0.855551 25.954 1.49086 26.3166 2.465ZM10.1436 13.5956C12.9431 12.1302 15.7342 10.6901 18.559 9.2247C15.7595 7.75078 12.9853 6.2938 10.2111 4.82835C10.1942 7.75925 10.1689 10.6563 10.1436 13.5956Z" fill="white"/>
</g>
<defs>
<clipPath id="clip0_494_123">
<rect width="27" height="19" fill="white"/>
</clipPath>
</defs>
</svg>
