<svg width="33" height="32" viewBox="0 0 33 32" fill="none" xmlns="http://www.w3.org/2000/svg">
<g clip-path="url(#clip0_513_155)">
<path d="M24.771 5.89703C24.7811 5.89703 24.7913 5.89703 24.7913 5.89703C25.8272 5.89703 26.6701 6.74026 26.66 7.79683C26.6498 8.83309 25.7967 9.67631 24.7506 9.67631C23.7046 9.66615 22.8718 8.81277 22.8819 7.77651C22.8921 6.74026 23.735 5.89703 24.771 5.89703Z" fill="white"/>
<path d="M31.8594 8.32512C32.093 10.804 32.2453 22.5076 31.5141 25.2506C30.5391 28.8369 28.193 30.9602 24.5673 31.5494C23.2064 31.7729 19.5502 31.905 15.8839 31.905C12.1363 31.905 8.39885 31.7628 7.1395 31.4377C3.57472 30.5132 1.44194 28.1867 0.873199 24.5699C0.4568 21.9082 0.416176 9.57472 1.17788 6.89265C2.17318 3.40799 4.50908 1.3558 8.03323 0.77672C9.63789 0.512577 12.766 0.421143 15.9245 0.421143C18.8596 0.421143 21.8252 0.502417 23.6127 0.593852C25.7759 0.705605 27.7462 1.4066 29.361 2.94066C30.8844 4.41377 31.6664 6.25261 31.8594 8.32512ZM28.8329 24.0416C29.2797 21.2783 29.2797 11.1697 29.0258 8.57911C28.7415 5.81576 27.0556 3.98708 24.3134 3.56038C22.9627 3.3572 19.6924 3.26576 16.4425 3.26576C13.3042 3.26576 10.1863 3.34704 8.81525 3.49943C6.08327 3.82453 4.23486 5.51098 3.79815 8.24385C3.35128 11.1393 3.35128 21.959 3.68643 24.1331C4.03174 26.3986 5.31141 27.953 7.56605 28.5829C8.78478 28.9283 12.441 29.0502 16.0261 29.0502C19.3268 29.0502 22.5666 28.9486 23.7853 28.8165C26.5681 28.5118 28.3962 26.805 28.8329 24.0416Z" fill="white"/>
<path d="M16.3818 8.09145C20.8302 8.09145 24.4153 11.7082 24.3848 16.1681C24.3543 20.6179 20.7083 24.2347 16.2498 24.2347C11.7912 24.2347 8.21631 20.6179 8.24678 16.158C8.27724 11.698 11.9233 8.08129 16.3818 8.09145ZM16.2701 21.3799C19.1341 21.3799 21.4801 19.0737 21.5309 16.2088C21.5817 13.3134 19.2864 10.9665 16.4021 10.9361C16.3818 10.9361 16.3716 10.9361 16.3513 10.9361C13.4873 10.9361 11.1413 13.2422 11.0905 16.1072C11.0397 18.9924 13.335 21.3494 16.2193 21.3799C16.2396 21.3799 16.2498 21.3799 16.2701 21.3799Z" fill="white"/>
</g>
<defs>
<clipPath id="clip0_513_155">
<rect width="31.4737" height="31.4737" fill="white" transform="translate(0.579102 0.421143)"/>
</clipPath>
</defs>
</svg>
